<svg xmlns="http://www.w3.org/2000/svg" width="117" height="35" viewBox="0 0 117 35"><rect class="svg__rect" x="0" y="0" width="66.6" height="35" fill="#FFFFFF"/><rect class="svg__rect" x="64.6" y="0" width="52.400000000000006" height="35" fill="#D53838"/><path class="svg__text" d="M15.00 22L13.46 22L16.68 13.47L18.01 13.47L21.24 22L19.69 22L18.99 20.01L15.69 20.01L15.00 22ZM17.34 15.28L16.10 18.82L18.58 18.82L17.34 15.28ZM24.95 18.13L24.95 18.13L24.95 17.46Q24.95 15.53 25.87 14.44Q26.80 13.35 28.46 13.35L28.46 13.35Q29.88 13.35 30.72 14.05Q31.56 14.76 31.73 16.08L31.73 16.08L30.27 16.08Q30.03 14.54 28.48 14.54L28.48 14.54Q27.49 14.54 26.97 15.26Q26.45 15.98 26.43 17.37L26.43 17.37L26.43 18.02Q26.43 19.40 27.02 20.17Q27.60 20.93 28.64 20.93L28.64 20.93Q29.77 20.93 30.25 20.42L30.25 20.42L30.25 18.75L28.50 18.75L28.50 17.62L31.73 17.62L31.73 20.89Q31.27 21.50 30.45 21.81Q29.63 22.12 28.58 22.12L28.58 22.12Q27.51 22.12 26.69 21.63Q25.86 21.14 25.41 20.24Q24.96 19.33 24.95 18.13ZM41.93 22L36.35 22L36.35 13.47L41.89 13.47L41.89 14.66L37.83 14.66L37.83 17.02L41.33 17.02L41.33 18.19L37.83 18.19L37.83 20.82L41.93 20.82L41.93 22ZM45.69 19.42L45.69 19.42L47.17 19.42Q47.17 20.15 47.65 20.55Q48.13 20.95 49.03 20.95L49.03 20.95Q49.80 20.95 50.19 20.63Q50.58 20.32 50.58 19.80L50.58 19.80Q50.58 19.24 50.18 18.94Q49.79 18.63 48.76 18.32Q47.73 18.01 47.12 17.63L47.12 17.63Q45.95 16.90 45.95 15.72L45.95 15.72Q45.95 14.69 46.79 14.02Q47.63 13.35 48.98 13.35L48.98 13.35Q49.87 13.35 50.56 13.68Q51.26 14.01 51.66 14.61Q52.06 15.22 52.06 15.96L52.06 15.96L50.58 15.96Q50.58 15.29 50.16 14.91Q49.74 14.54 48.96 14.54L48.96 14.54Q48.24 14.54 47.84 14.85Q47.43 15.16 47.43 15.71L47.43 15.71Q47.43 16.18 47.87 16.50Q48.30 16.81 49.30 17.10Q50.29 17.40 50.90 17.78Q51.50 18.16 51.78 18.65Q52.06 19.13 52.06 19.79L52.06 19.79Q52.06 20.86 51.25 21.49Q50.43 22.12 49.03 22.12L49.03 22.12Q48.10 22.12 47.33 21.77Q46.55 21.43 46.12 20.83Q45.69 20.22 45.69 19.42Z" fill="#000000"/><path class="svg__text" d="M79.58 15.44L78.02 15.44L78.02 13.60L81.96 13.60L81.96 22L79.58 22L79.58 15.44ZM86.65 19.53L86.65 19.53Q86.65 18.89 86.96 18.40Q87.28 17.91 87.85 17.57L87.85 17.57Q87.42 17.27 87.19 16.84Q86.96 16.41 86.96 15.88L86.96 15.88Q86.96 15.15 87.37 14.59Q87.79 14.03 88.56 13.73Q89.32 13.43 90.30 13.43L90.30 13.43Q91.29 13.43 92.05 13.73Q92.81 14.03 93.23 14.59Q93.65 15.15 93.65 15.88L93.65 15.88Q93.65 16.41 93.42 16.84Q93.18 17.27 92.75 17.57L92.75 17.57Q93.32 17.91 93.64 18.40Q93.95 18.89 93.95 19.53L93.95 19.53Q93.95 20.32 93.49 20.92Q93.04 21.52 92.21 21.84Q91.38 22.17 90.30 22.17L90.30 22.17Q89.22 22.17 88.39 21.84Q87.57 21.52 87.11 20.92Q86.65 20.32 86.65 19.53ZM89.04 19.46L89.04 19.46Q89.04 19.94 89.38 20.22Q89.73 20.50 90.30 20.50L90.30 20.50Q90.88 20.50 91.22 20.22Q91.56 19.94 91.56 19.46L91.56 19.46Q91.56 18.98 91.22 18.70Q90.88 18.41 90.30 18.41L90.30 18.41Q89.73 18.41 89.38 18.70Q89.04 18.98 89.04 19.46ZM89.31 15.99L89.31 15.99Q89.31 16.40 89.57 16.63Q89.84 16.86 90.30 16.86L90.30 16.86Q90.76 16.86 91.03 16.63Q91.31 16.40 91.31 15.99L91.31 15.99Q91.31 15.57 91.03 15.33Q90.76 15.10 90.30 15.10L90.30 15.10Q89.86 15.10 89.58 15.33Q89.31 15.57 89.31 15.99ZM100.54 18.68L98.50 18.68L98.50 16.93L100.54 16.93L100.54 14.95L102.39 14.95L102.39 16.93L104.42 16.93L104.42 18.68L102.39 18.68L102.39 20.66L100.54 20.66L100.54 18.68Z" fill="#FFFFFF" x="77.6"/></svg>